<svg width="8" height="8" viewBox="0 0 8 8" fill="none" xmlns="http://www.w3.org/2000/svg">
<g clip-path="url(#clip0_201_15977)">
<path d="M6.66083 5.55308V3.05405H2.77345V5.55308H6.66083ZM6.66083 1.66569C6.96627 1.66569 7.21618 1.9156 7.21618 2.22103V5.55308C7.21618 5.85852 6.96627 6.10842 6.66083 6.10842H2.77345C2.46523 6.10842 2.2181 5.85852 2.2181 5.55308V2.22103C2.2181 1.9156 2.46801 1.66569 2.77345 1.66569H3.05112V1.11035H3.60646V1.66569H5.82782V1.11035H6.38316V1.66569H6.66083ZM1.66276 6.66376H5.55015V7.21911H1.66276C1.35455 7.21911 1.10742 6.9692 1.10742 6.66376V3.33172H1.66276V6.66376Z" fill="black"/>
</g>
<defs>
<clipPath id="clip0_201_15977">
<rect width="6.6641" height="6.6641" fill="white" transform="translate(0.82959 0.832031)"/>
</clipPath>
</defs>
</svg>
